<?xml version="1.0" encoding="UTF-8"?>
<svg width="62px" height="78px" viewBox="0 0 62 78" version="1.1" xmlns="http://www.w3.org/2000/svg" xmlns:xlink="http://www.w3.org/1999/xlink">
    <!-- Generator: Sketch 42 (36781) - http://www.bohemiancoding.com/sketch -->
    <title>icon</title>
    <desc>Created with Sketch.</desc>
    <defs></defs>
    <g id="Page-1" stroke="none" stroke-width="1" fill="none" fill-rule="evenodd">
        <g id="icon" fill-rule="nonzero" fill="#000000">
            <g id="Group">
                <path d="M60.9,21.2 L40.8,1.2 C40.4867739,0.482015259 39.7832267,0.0129838314 39,0 L12,0 C5.372583,-1.77635684e-15 -7.10542736e-15,5.372583 -7.10542736e-15,12 L-7.10542736e-15,66 C-7.10542736e-15,72.627417 5.372583,78 12,78 L50,78 C56.627417,78 62,72.627417 62,66 L62,23.1 L62,23.1 C62.044786,22.3040352 61.6125766,21.5574917 60.9,21.2 L60.9,21.2 Z M41,7 L55,21 L41,21 L41,7 Z M58,66 C58,70.418278 54.418278,74 50,74 L12,74 C7.581722,74 4,70.418278 4,66 L4,12 C4,7.581722 7.581722,4 12,4 L37,4 L37,23 C37,24.1045695 37.8954305,25 39,25 L58,25 L58,66 Z" id="Shape"></path>
                <path d="M19.6,37.6 C14.9638247,42.2320257 13.5751622,49.2010724 16.0817641,55.2563784 C18.588366,61.3116844 24.4963915,65.2602574 31.05,65.2602574 C37.6036085,65.2602574 43.511634,61.3116844 46.0182359,55.2563784 C48.5248378,49.2010724 47.1361753,42.2320257 42.5,37.6 C36.1746818,31.2803432 25.9253182,31.2803432 19.6,37.6 L19.6,37.6 Z M22.4,40.4 C26.5959118,36.1526564 33.262641,35.6006342 38.1,39.1 L21.1,56.1 C17.6435492,51.2507605 18.1930329,44.614689 22.4,40.4 L22.4,40.4 Z M39.6,57.6 C35.385311,61.8069671 28.7492395,62.3564508 23.9,58.9 L40.9,41.9 C44.3564508,46.7492395 43.8069671,53.385311 39.6,57.6 Z" id="Shape"></path>
            </g>
        </g>
    </g>
</svg>